<mxfile host="app.diagrams.net" modified="2024-04-17T14:55:41.229Z" agent="Mozilla/5.0 (Windows NT 10.0; Win64; x64) AppleWebKit/537.36 (KHTML, like Gecko) Chrome/123.0.0.0 Safari/537.36 Edg/123.0.0.0" etag="VkjD8RAmTn5h6l1P3awt" version="24.2.5" type="google">
  <diagram id="R2lEEEUBdFMjLlhIrx00" name="Page-1">
    <mxGraphModel grid="1" page="1" gridSize="10" guides="1" tooltips="1" connect="1" arrows="1" fold="1" pageScale="1" pageWidth="850" pageHeight="1100" math="0" shadow="0" extFonts="Permanent Marker^https://fonts.googleapis.com/css?family=Permanent+Marker">
      <root>
        <mxCell id="0" />
        <mxCell id="1" parent="0" />
        <mxCell id="-fKWHb4eZTRA06gbMYJY-56" value="ENROLL" style="shape=associativeEntity;whiteSpace=wrap;html=1;align=center;" vertex="1" parent="1">
          <mxGeometry x="-50" y="960" width="100" height="40" as="geometry" />
        </mxCell>
        <mxCell id="-fKWHb4eZTRA06gbMYJY-8" value="SCHOOL" style="whiteSpace=wrap;html=1;align=center;" vertex="1" parent="1">
          <mxGeometry x="160" y="310" width="100" height="40" as="geometry" />
        </mxCell>
        <mxCell id="-fKWHb4eZTRA06gbMYJY-9" value="COURSE" style="whiteSpace=wrap;html=1;align=center;" vertex="1" parent="1">
          <mxGeometry x="-630" y="100" width="100" height="40" as="geometry" />
        </mxCell>
        <mxCell id="-fKWHb4eZTRA06gbMYJY-10" value="CLASS" style="whiteSpace=wrap;html=1;align=center;" vertex="1" parent="1">
          <mxGeometry x="-680" y="450" width="100" height="40" as="geometry" />
        </mxCell>
        <mxCell id="-fKWHb4eZTRA06gbMYJY-12" value="STUDENT" style="whiteSpace=wrap;html=1;align=center;" vertex="1" parent="1">
          <mxGeometry x="580" y="890" width="100" height="40" as="geometry" />
        </mxCell>
        <mxCell id="-fKWHb4eZTRA06gbMYJY-13" value="ROOM" style="whiteSpace=wrap;html=1;align=center;" vertex="1" parent="1">
          <mxGeometry x="-680" y="770" width="100" height="40" as="geometry" />
        </mxCell>
        <mxCell id="-fKWHb4eZTRA06gbMYJY-14" value="BUILDING" style="whiteSpace=wrap;html=1;align=center;" vertex="1" parent="1">
          <mxGeometry x="-680" y="1030" width="100" height="40" as="geometry" />
        </mxCell>
        <mxCell id="-fKWHb4eZTRA06gbMYJY-15" value="PROFESSOR" style="whiteSpace=wrap;html=1;align=center;" vertex="1" parent="1">
          <mxGeometry x="-80" y="670" width="100" height="40" as="geometry" />
        </mxCell>
        <mxCell id="-fKWHb4eZTRA06gbMYJY-16" value="DEPARTMENT" style="whiteSpace=wrap;html=1;align=center;" vertex="1" parent="1">
          <mxGeometry x="580" y="100" width="100" height="40" as="geometry" />
        </mxCell>
        <mxCell id="-fKWHb4eZTRA06gbMYJY-17" value="SEMESTER" style="whiteSpace=wrap;html=1;align=center;" vertex="1" parent="1">
          <mxGeometry x="-260" y="310" width="100" height="40" as="geometry" />
        </mxCell>
        <mxCell id="-fKWHb4eZTRA06gbMYJY-18" value="PROF_NUM" style="ellipse;whiteSpace=wrap;html=1;align=center;fontStyle=4;" vertex="1" parent="1">
          <mxGeometry x="-130" y="840" width="100" height="40" as="geometry" />
        </mxCell>
        <mxCell id="-fKWHb4eZTRA06gbMYJY-19" value="DEPT_CODE" style="ellipse;whiteSpace=wrap;html=1;align=center;" vertex="1" parent="1">
          <mxGeometry x="120" y="780" width="100" height="40" as="geometry" />
        </mxCell>
        <mxCell id="-fKWHb4eZTRA06gbMYJY-20" value="&lt;font style=&quot;font-size: 11px;&quot;&gt;PROF_SPECIALTY&lt;/font&gt;" style="ellipse;whiteSpace=wrap;html=1;align=center;" vertex="1" parent="1">
          <mxGeometry x="-320" y="740" width="100" height="40" as="geometry" />
        </mxCell>
        <mxCell id="-fKWHb4eZTRA06gbMYJY-21" value="PROF_RANK" style="ellipse;whiteSpace=wrap;html=1;align=center;" vertex="1" parent="1">
          <mxGeometry x="-270" y="780" width="100" height="40" as="geometry" />
        </mxCell>
        <mxCell id="-fKWHb4eZTRA06gbMYJY-23" value="PROF_FNAME" style="ellipse;whiteSpace=wrap;html=1;align=center;" vertex="1" parent="1">
          <mxGeometry x="-220" y="820" width="100" height="40" as="geometry" />
        </mxCell>
        <mxCell id="-fKWHb4eZTRA06gbMYJY-24" value="PROF_INITIAL" style="ellipse;whiteSpace=wrap;html=1;align=center;" vertex="1" parent="1">
          <mxGeometry x="-30" y="840" width="100" height="40" as="geometry" />
        </mxCell>
        <mxCell id="-fKWHb4eZTRA06gbMYJY-25" value="PROF_EMAIL" style="ellipse;whiteSpace=wrap;html=1;align=center;" vertex="1" parent="1">
          <mxGeometry x="170" y="740" width="100" height="40" as="geometry" />
        </mxCell>
        <mxCell id="-fKWHb4eZTRA06gbMYJY-27" value="SCHOOL_CODE" style="ellipse;whiteSpace=wrap;html=1;align=center;fontStyle=4;" vertex="1" parent="1">
          <mxGeometry x="30" y="310" width="100" height="40" as="geometry" />
        </mxCell>
        <mxCell id="-fKWHb4eZTRA06gbMYJY-28" value="SCHOOL_NAME" style="ellipse;whiteSpace=wrap;html=1;align=center;" vertex="1" parent="1">
          <mxGeometry x="30" y="260" width="100" height="40" as="geometry" />
        </mxCell>
        <mxCell id="-fKWHb4eZTRA06gbMYJY-29" value="PROF_NUM" style="ellipse;whiteSpace=wrap;html=1;align=center;" vertex="1" parent="1">
          <mxGeometry x="30" y="360" width="100" height="40" as="geometry" />
        </mxCell>
        <mxCell id="-fKWHb4eZTRA06gbMYJY-30" value="DEPT_CODE" style="ellipse;whiteSpace=wrap;html=1;align=center;fontStyle=4;" vertex="1" parent="1">
          <mxGeometry x="730" y="170" width="100" height="40" as="geometry" />
        </mxCell>
        <mxCell id="-fKWHb4eZTRA06gbMYJY-31" value="DEPT_NAME" style="ellipse;whiteSpace=wrap;html=1;align=center;" vertex="1" parent="1">
          <mxGeometry x="730" y="120" width="100" height="40" as="geometry" />
        </mxCell>
        <mxCell id="-fKWHb4eZTRA06gbMYJY-32" value="SCHOOL_CODE" style="ellipse;whiteSpace=wrap;html=1;align=center;" vertex="1" parent="1">
          <mxGeometry x="730" y="70" width="100" height="40" as="geometry" />
        </mxCell>
        <mxCell id="-fKWHb4eZTRA06gbMYJY-33" value="PROF_NUM" style="ellipse;whiteSpace=wrap;html=1;align=center;" vertex="1" parent="1">
          <mxGeometry x="730" y="20" width="100" height="40" as="geometry" />
        </mxCell>
        <mxCell id="-fKWHb4eZTRA06gbMYJY-35" value="&lt;font style=&quot;font-size: 10px;&quot;&gt;SEMESTER_CODE&lt;/font&gt;" style="ellipse;whiteSpace=wrap;html=1;align=center;fontStyle=4;" vertex="1" parent="1">
          <mxGeometry x="-130" y="310" width="100" height="40" as="geometry" />
        </mxCell>
        <mxCell id="-fKWHb4eZTRA06gbMYJY-36" value="&lt;font style=&quot;font-size: 10px;&quot;&gt;SEMESTER_TERM&lt;/font&gt;" style="ellipse;whiteSpace=wrap;html=1;align=center;" vertex="1" parent="1">
          <mxGeometry x="-130" y="360" width="100" height="40" as="geometry" />
        </mxCell>
        <mxCell id="-fKWHb4eZTRA06gbMYJY-37" value="&lt;font style=&quot;font-size: 10px;&quot;&gt;SEMESTER_YEAR&lt;/font&gt;" style="ellipse;whiteSpace=wrap;html=1;align=center;" vertex="1" parent="1">
          <mxGeometry x="-130" y="410" width="100" height="40" as="geometry" />
        </mxCell>
        <mxCell id="-fKWHb4eZTRA06gbMYJY-38" value="&lt;font style=&quot;font-size: 8px;&quot;&gt;SEMESTER_START_DATE&lt;/font&gt;" style="ellipse;whiteSpace=wrap;html=1;align=center;" vertex="1" parent="1">
          <mxGeometry x="-130" y="260" width="100" height="40" as="geometry" />
        </mxCell>
        <mxCell id="-fKWHb4eZTRA06gbMYJY-39" value="&lt;font style=&quot;font-size: 8px;&quot;&gt;SEMESTER_END_DATE&lt;/font&gt;" style="ellipse;whiteSpace=wrap;html=1;align=center;" vertex="1" parent="1">
          <mxGeometry x="-130" y="210" width="100" height="40" as="geometry" />
        </mxCell>
        <mxCell id="-fKWHb4eZTRA06gbMYJY-42" value="&lt;font style=&quot;font-size: 10px;&quot;&gt;CRS_DESCRIPTION&lt;/font&gt;" style="ellipse;whiteSpace=wrap;html=1;align=center;" vertex="1" parent="1">
          <mxGeometry x="-830" y="50" width="100" height="40" as="geometry" />
        </mxCell>
        <mxCell id="-fKWHb4eZTRA06gbMYJY-43" value="CRS_CREDIT" style="ellipse;whiteSpace=wrap;html=1;align=center;" vertex="1" parent="1">
          <mxGeometry x="-530" y="30" width="100" height="40" as="geometry" />
        </mxCell>
        <mxCell id="-fKWHb4eZTRA06gbMYJY-44" value="DEPT_CODE" style="ellipse;whiteSpace=wrap;html=1;align=center;" vertex="1" parent="1">
          <mxGeometry x="-730" y="30" width="100" height="40" as="geometry" />
        </mxCell>
        <mxCell id="-fKWHb4eZTRA06gbMYJY-45" value="CRS_TITLE" style="ellipse;whiteSpace=wrap;html=1;align=center;" vertex="1" parent="1">
          <mxGeometry x="-430" y="50" width="100" height="40" as="geometry" />
        </mxCell>
        <mxCell id="-fKWHb4eZTRA06gbMYJY-48" value="CLASS_CODE" style="ellipse;whiteSpace=wrap;html=1;align=center;fontStyle=4;" vertex="1" parent="1">
          <mxGeometry x="-830" y="480" width="100" height="40" as="geometry" />
        </mxCell>
        <mxCell id="-fKWHb4eZTRA06gbMYJY-49" value="&lt;font style=&quot;font-size: 11px;&quot;&gt;CLASS_SECTION&lt;/font&gt;" style="ellipse;whiteSpace=wrap;html=1;align=center;" vertex="1" parent="1">
          <mxGeometry x="-830" y="330" width="100" height="40" as="geometry" />
        </mxCell>
        <mxCell id="-fKWHb4eZTRA06gbMYJY-50" value="CLASS_TIME" style="ellipse;whiteSpace=wrap;html=1;align=center;" vertex="1" parent="1">
          <mxGeometry x="-830" y="380" width="100" height="40" as="geometry" />
        </mxCell>
        <mxCell id="-fKWHb4eZTRA06gbMYJY-51" value="CRS_CODE" style="ellipse;whiteSpace=wrap;html=1;align=center;" vertex="1" parent="1">
          <mxGeometry x="-830" y="580" width="100" height="40" as="geometry" />
        </mxCell>
        <mxCell id="-fKWHb4eZTRA06gbMYJY-52" value="ROOM_CODE" style="ellipse;whiteSpace=wrap;html=1;align=center;" vertex="1" parent="1">
          <mxGeometry x="-830" y="530" width="100" height="40" as="geometry" />
        </mxCell>
        <mxCell id="-fKWHb4eZTRA06gbMYJY-53" value="PROF_NUM" style="ellipse;whiteSpace=wrap;html=1;align=center;" vertex="1" parent="1">
          <mxGeometry x="-830" y="630" width="100" height="40" as="geometry" />
        </mxCell>
        <mxCell id="-fKWHb4eZTRA06gbMYJY-54" value="&lt;font style=&quot;font-size: 10px;&quot;&gt;SEMESTER_CODE&lt;/font&gt;" style="ellipse;whiteSpace=wrap;html=1;align=center;" vertex="1" parent="1">
          <mxGeometry x="-830" y="280" width="100" height="40" as="geometry" />
        </mxCell>
        <mxCell id="-fKWHb4eZTRA06gbMYJY-55" value="CRS_CODE" style="ellipse;whiteSpace=wrap;html=1;align=center;" vertex="1" parent="1">
          <mxGeometry x="-830" y="430" width="100" height="40" as="geometry" />
        </mxCell>
        <mxCell id="-fKWHb4eZTRA06gbMYJY-57" value="STU_NUM" style="ellipse;whiteSpace=wrap;html=1;align=center;fontStyle=4;" vertex="1" parent="1">
          <mxGeometry x="-90" y="1040" width="100" height="40" as="geometry" />
        </mxCell>
        <mxCell id="-fKWHb4eZTRA06gbMYJY-58" value="CLASS_CODE" style="ellipse;whiteSpace=wrap;html=1;align=center;fontStyle=4;" vertex="1" parent="1">
          <mxGeometry x="-200" y="1040" width="100" height="40" as="geometry" />
        </mxCell>
        <mxCell id="-fKWHb4eZTRA06gbMYJY-59" value="ENROLL_GRADE" style="ellipse;whiteSpace=wrap;html=1;align=center;" vertex="1" parent="1">
          <mxGeometry x="140" y="1040" width="100" height="40" as="geometry" />
        </mxCell>
        <mxCell id="-fKWHb4eZTRA06gbMYJY-60" value="ENROLL_DATE" style="ellipse;whiteSpace=wrap;html=1;align=center;" vertex="1" parent="1">
          <mxGeometry x="20" y="1040" width="100" height="40" as="geometry" />
        </mxCell>
        <mxCell id="-fKWHb4eZTRA06gbMYJY-61" value="STU_NUM" style="ellipse;whiteSpace=wrap;html=1;align=center;fontStyle=4;" vertex="1" parent="1">
          <mxGeometry x="730" y="890" width="100" height="40" as="geometry" />
        </mxCell>
        <mxCell id="-fKWHb4eZTRA06gbMYJY-62" value="STU_EMAIL" style="ellipse;whiteSpace=wrap;html=1;align=center;" vertex="1" parent="1">
          <mxGeometry x="730" y="990" width="100" height="40" as="geometry" />
        </mxCell>
        <mxCell id="-fKWHb4eZTRA06gbMYJY-63" value="STU_INITIAL" style="ellipse;whiteSpace=wrap;html=1;align=center;" vertex="1" parent="1">
          <mxGeometry x="730" y="840" width="100" height="40" as="geometry" />
        </mxCell>
        <mxCell id="-fKWHb4eZTRA06gbMYJY-64" value="DEPT_CODE" style="ellipse;whiteSpace=wrap;html=1;align=center;" vertex="1" parent="1">
          <mxGeometry x="730" y="1040" width="100" height="40" as="geometry" />
        </mxCell>
        <mxCell id="-fKWHb4eZTRA06gbMYJY-65" value="STU_LNAME" style="ellipse;whiteSpace=wrap;html=1;align=center;" vertex="1" parent="1">
          <mxGeometry x="730" y="790" width="100" height="40" as="geometry" />
        </mxCell>
        <mxCell id="-fKWHb4eZTRA06gbMYJY-66" value="STU_FNAME" style="ellipse;whiteSpace=wrap;html=1;align=center;" vertex="1" parent="1">
          <mxGeometry x="730" y="740" width="100" height="40" as="geometry" />
        </mxCell>
        <mxCell id="-fKWHb4eZTRA06gbMYJY-67" value="PROF_NUM" style="ellipse;whiteSpace=wrap;html=1;align=center;" vertex="1" parent="1">
          <mxGeometry x="730" y="940" width="100" height="40" as="geometry" />
        </mxCell>
        <mxCell id="-fKWHb4eZTRA06gbMYJY-68" value="ROOM_CODE" style="ellipse;whiteSpace=wrap;html=1;align=center;fontStyle=4;" vertex="1" parent="1">
          <mxGeometry x="-830" y="770" width="100" height="40" as="geometry" />
        </mxCell>
        <mxCell id="-fKWHb4eZTRA06gbMYJY-69" value="BLDG_CODE" style="ellipse;whiteSpace=wrap;html=1;align=center;" vertex="1" parent="1">
          <mxGeometry x="-830" y="820" width="100" height="40" as="geometry" />
        </mxCell>
        <mxCell id="-fKWHb4eZTRA06gbMYJY-70" value="ROOM_TYPE" style="ellipse;whiteSpace=wrap;html=1;align=center;" vertex="1" parent="1">
          <mxGeometry x="-830" y="720" width="100" height="40" as="geometry" />
        </mxCell>
        <mxCell id="-fKWHb4eZTRA06gbMYJY-71" value="BLDG_CODE" style="ellipse;whiteSpace=wrap;html=1;align=center;fontStyle=4;" vertex="1" parent="1">
          <mxGeometry x="-830" y="990" width="100" height="40" as="geometry" />
        </mxCell>
        <mxCell id="-fKWHb4eZTRA06gbMYJY-72" value="&lt;font style=&quot;font-size: 11px;&quot;&gt;BLDG_LOCATION&lt;/font&gt;" style="ellipse;whiteSpace=wrap;html=1;align=center;" vertex="1" parent="1">
          <mxGeometry x="-830" y="940" width="100" height="40" as="geometry" />
        </mxCell>
        <mxCell id="-fKWHb4eZTRA06gbMYJY-73" value="BLDG_NAME" style="ellipse;whiteSpace=wrap;html=1;align=center;" vertex="1" parent="1">
          <mxGeometry x="-830" y="1040" width="100" height="40" as="geometry" />
        </mxCell>
        <mxCell id="zHZeU2eLevNIGY5PHgCM-1" value="" style="endArrow=none;html=1;rounded=0;entryX=0.5;entryY=0;entryDx=0;entryDy=0;exitX=0.5;exitY=1;exitDx=0;exitDy=0;" edge="1" parent="1" source="-fKWHb4eZTRA06gbMYJY-15" target="-fKWHb4eZTRA06gbMYJY-24">
          <mxGeometry width="50" height="50" relative="1" as="geometry">
            <mxPoint x="30" y="750" as="sourcePoint" />
            <mxPoint x="450" y="210" as="targetPoint" />
          </mxGeometry>
        </mxCell>
        <mxCell id="zHZeU2eLevNIGY5PHgCM-2" value="" style="endArrow=none;html=1;rounded=0;exitX=0.5;exitY=1;exitDx=0;exitDy=0;entryX=0.5;entryY=0;entryDx=0;entryDy=0;" edge="1" parent="1" source="-fKWHb4eZTRA06gbMYJY-15" target="-fKWHb4eZTRA06gbMYJY-25">
          <mxGeometry width="50" height="50" relative="1" as="geometry">
            <mxPoint x="400" y="260" as="sourcePoint" />
            <mxPoint x="450" y="210" as="targetPoint" />
          </mxGeometry>
        </mxCell>
        <mxCell id="zHZeU2eLevNIGY5PHgCM-3" value="" style="endArrow=none;html=1;rounded=0;exitX=0.5;exitY=1;exitDx=0;exitDy=0;entryX=0.5;entryY=0;entryDx=0;entryDy=0;" edge="1" parent="1" source="-fKWHb4eZTRA06gbMYJY-15" target="-fKWHb4eZTRA06gbMYJY-18">
          <mxGeometry width="50" height="50" relative="1" as="geometry">
            <mxPoint x="400" y="260" as="sourcePoint" />
            <mxPoint x="450" y="210" as="targetPoint" />
          </mxGeometry>
        </mxCell>
        <mxCell id="zHZeU2eLevNIGY5PHgCM-4" value="" style="endArrow=none;html=1;rounded=0;entryX=0.5;entryY=0;entryDx=0;entryDy=0;exitX=0.5;exitY=1;exitDx=0;exitDy=0;" edge="1" parent="1" source="-fKWHb4eZTRA06gbMYJY-15" target="-fKWHb4eZTRA06gbMYJY-23">
          <mxGeometry width="50" height="50" relative="1" as="geometry">
            <mxPoint x="20" y="760" as="sourcePoint" />
            <mxPoint x="450" y="210" as="targetPoint" />
          </mxGeometry>
        </mxCell>
        <mxCell id="zHZeU2eLevNIGY5PHgCM-5" value="" style="endArrow=none;html=1;rounded=0;exitX=0.5;exitY=1;exitDx=0;exitDy=0;entryX=0.5;entryY=0;entryDx=0;entryDy=0;" edge="1" parent="1" source="-fKWHb4eZTRA06gbMYJY-15" target="-fKWHb4eZTRA06gbMYJY-22">
          <mxGeometry width="50" height="50" relative="1" as="geometry">
            <mxPoint x="400" y="260" as="sourcePoint" />
            <mxPoint x="450" y="210" as="targetPoint" />
          </mxGeometry>
        </mxCell>
        <mxCell id="zHZeU2eLevNIGY5PHgCM-6" value="" style="endArrow=none;html=1;rounded=0;exitX=0.5;exitY=1;exitDx=0;exitDy=0;entryX=0.5;entryY=0;entryDx=0;entryDy=0;" edge="1" parent="1" source="-fKWHb4eZTRA06gbMYJY-15" target="-fKWHb4eZTRA06gbMYJY-19">
          <mxGeometry width="50" height="50" relative="1" as="geometry">
            <mxPoint x="400" y="260" as="sourcePoint" />
            <mxPoint x="450" y="210" as="targetPoint" />
          </mxGeometry>
        </mxCell>
        <mxCell id="zHZeU2eLevNIGY5PHgCM-7" value="" style="endArrow=none;html=1;rounded=0;entryX=0.5;entryY=0;entryDx=0;entryDy=0;exitX=0.5;exitY=1;exitDx=0;exitDy=0;" edge="1" parent="1" source="-fKWHb4eZTRA06gbMYJY-15" target="-fKWHb4eZTRA06gbMYJY-21">
          <mxGeometry width="50" height="50" relative="1" as="geometry">
            <mxPoint x="390" y="160" as="sourcePoint" />
            <mxPoint x="450" y="210" as="targetPoint" />
          </mxGeometry>
        </mxCell>
        <mxCell id="zHZeU2eLevNIGY5PHgCM-8" value="" style="endArrow=none;html=1;rounded=0;exitX=0.5;exitY=1;exitDx=0;exitDy=0;entryX=0.5;entryY=0;entryDx=0;entryDy=0;" edge="1" parent="1" source="-fKWHb4eZTRA06gbMYJY-15" target="-fKWHb4eZTRA06gbMYJY-20">
          <mxGeometry width="50" height="50" relative="1" as="geometry">
            <mxPoint x="400" y="260" as="sourcePoint" />
            <mxPoint x="450" y="210" as="targetPoint" />
          </mxGeometry>
        </mxCell>
        <mxCell id="zHZeU2eLevNIGY5PHgCM-9" style="edgeStyle=orthogonalEdgeStyle;rounded=0;orthogonalLoop=1;jettySize=auto;html=1;exitX=0.5;exitY=1;exitDx=0;exitDy=0;" edge="1" parent="1" source="-fKWHb4eZTRA06gbMYJY-18" target="-fKWHb4eZTRA06gbMYJY-18">
          <mxGeometry relative="1" as="geometry" />
        </mxCell>
        <mxCell id="zHZeU2eLevNIGY5PHgCM-10" value="" style="endArrow=none;html=1;rounded=0;exitX=1;exitY=0.5;exitDx=0;exitDy=0;entryX=0;entryY=0.5;entryDx=0;entryDy=0;" edge="1" parent="1" source="-fKWHb4eZTRA06gbMYJY-27" target="-fKWHb4eZTRA06gbMYJY-8">
          <mxGeometry width="50" height="50" relative="1" as="geometry">
            <mxPoint x="430" y="260" as="sourcePoint" />
            <mxPoint x="480" y="210" as="targetPoint" />
          </mxGeometry>
        </mxCell>
        <mxCell id="zHZeU2eLevNIGY5PHgCM-11" value="" style="endArrow=none;html=1;rounded=0;exitX=1;exitY=0.5;exitDx=0;exitDy=0;entryX=0;entryY=0.5;entryDx=0;entryDy=0;" edge="1" parent="1" source="-fKWHb4eZTRA06gbMYJY-29" target="-fKWHb4eZTRA06gbMYJY-8">
          <mxGeometry width="50" height="50" relative="1" as="geometry">
            <mxPoint x="430" y="260" as="sourcePoint" />
            <mxPoint x="480" y="210" as="targetPoint" />
          </mxGeometry>
        </mxCell>
        <mxCell id="zHZeU2eLevNIGY5PHgCM-12" value="" style="endArrow=none;html=1;rounded=0;exitX=1;exitY=0.5;exitDx=0;exitDy=0;entryX=0;entryY=0.5;entryDx=0;entryDy=0;" edge="1" parent="1" source="-fKWHb4eZTRA06gbMYJY-28" target="-fKWHb4eZTRA06gbMYJY-8">
          <mxGeometry width="50" height="50" relative="1" as="geometry">
            <mxPoint x="430" y="260" as="sourcePoint" />
            <mxPoint x="480" y="210" as="targetPoint" />
          </mxGeometry>
        </mxCell>
        <mxCell id="zHZeU2eLevNIGY5PHgCM-16" value="" style="endArrow=none;html=1;rounded=0;exitX=0;exitY=0.5;exitDx=0;exitDy=0;entryX=1;entryY=0.5;entryDx=0;entryDy=0;" edge="1" parent="1" source="-fKWHb4eZTRA06gbMYJY-10" target="-fKWHb4eZTRA06gbMYJY-48">
          <mxGeometry width="50" height="50" relative="1" as="geometry">
            <mxPoint x="380" y="760" as="sourcePoint" />
            <mxPoint x="430" y="710" as="targetPoint" />
          </mxGeometry>
        </mxCell>
        <mxCell id="zHZeU2eLevNIGY5PHgCM-17" value="" style="endArrow=none;html=1;rounded=0;exitX=0;exitY=0.5;exitDx=0;exitDy=0;entryX=1;entryY=0.5;entryDx=0;entryDy=0;" edge="1" parent="1" source="-fKWHb4eZTRA06gbMYJY-10" target="-fKWHb4eZTRA06gbMYJY-52">
          <mxGeometry width="50" height="50" relative="1" as="geometry">
            <mxPoint x="380" y="760" as="sourcePoint" />
            <mxPoint x="430" y="710" as="targetPoint" />
          </mxGeometry>
        </mxCell>
        <mxCell id="zHZeU2eLevNIGY5PHgCM-18" value="" style="endArrow=none;html=1;rounded=0;exitX=0;exitY=0.5;exitDx=0;exitDy=0;entryX=1;entryY=0.5;entryDx=0;entryDy=0;" edge="1" parent="1" source="-fKWHb4eZTRA06gbMYJY-10" target="-fKWHb4eZTRA06gbMYJY-50">
          <mxGeometry width="50" height="50" relative="1" as="geometry">
            <mxPoint x="380" y="760" as="sourcePoint" />
            <mxPoint x="430" y="710" as="targetPoint" />
          </mxGeometry>
        </mxCell>
        <mxCell id="zHZeU2eLevNIGY5PHgCM-19" value="" style="endArrow=none;html=1;rounded=0;exitX=0;exitY=0.5;exitDx=0;exitDy=0;entryX=1;entryY=0.5;entryDx=0;entryDy=0;" edge="1" parent="1" source="-fKWHb4eZTRA06gbMYJY-10" target="-fKWHb4eZTRA06gbMYJY-53">
          <mxGeometry width="50" height="50" relative="1" as="geometry">
            <mxPoint x="380" y="760" as="sourcePoint" />
            <mxPoint x="430" y="710" as="targetPoint" />
          </mxGeometry>
        </mxCell>
        <mxCell id="zHZeU2eLevNIGY5PHgCM-20" value="" style="endArrow=none;html=1;rounded=0;exitX=0;exitY=0.5;exitDx=0;exitDy=0;entryX=1;entryY=0.5;entryDx=0;entryDy=0;" edge="1" parent="1" source="-fKWHb4eZTRA06gbMYJY-10" target="-fKWHb4eZTRA06gbMYJY-55">
          <mxGeometry width="50" height="50" relative="1" as="geometry">
            <mxPoint x="380" y="760" as="sourcePoint" />
            <mxPoint x="-710" y="370" as="targetPoint" />
          </mxGeometry>
        </mxCell>
        <mxCell id="zHZeU2eLevNIGY5PHgCM-21" value="" style="endArrow=none;html=1;rounded=0;exitX=0;exitY=0.5;exitDx=0;exitDy=0;entryX=1;entryY=0.5;entryDx=0;entryDy=0;" edge="1" parent="1" source="-fKWHb4eZTRA06gbMYJY-10" target="-fKWHb4eZTRA06gbMYJY-51">
          <mxGeometry width="50" height="50" relative="1" as="geometry">
            <mxPoint x="380" y="760" as="sourcePoint" />
            <mxPoint x="430" y="710" as="targetPoint" />
          </mxGeometry>
        </mxCell>
        <mxCell id="zHZeU2eLevNIGY5PHgCM-22" value="" style="endArrow=none;html=1;rounded=0;exitX=0;exitY=0.5;exitDx=0;exitDy=0;entryX=1;entryY=0.5;entryDx=0;entryDy=0;" edge="1" parent="1" source="-fKWHb4eZTRA06gbMYJY-10" target="-fKWHb4eZTRA06gbMYJY-54">
          <mxGeometry width="50" height="50" relative="1" as="geometry">
            <mxPoint x="380" y="760" as="sourcePoint" />
            <mxPoint x="430" y="710" as="targetPoint" />
          </mxGeometry>
        </mxCell>
        <mxCell id="zHZeU2eLevNIGY5PHgCM-23" value="" style="endArrow=none;html=1;rounded=0;exitX=0;exitY=0.5;exitDx=0;exitDy=0;entryX=1;entryY=0.5;entryDx=0;entryDy=0;" edge="1" parent="1" source="-fKWHb4eZTRA06gbMYJY-10" target="-fKWHb4eZTRA06gbMYJY-49">
          <mxGeometry width="50" height="50" relative="1" as="geometry">
            <mxPoint x="380" y="760" as="sourcePoint" />
            <mxPoint x="430" y="710" as="targetPoint" />
          </mxGeometry>
        </mxCell>
        <mxCell id="zHZeU2eLevNIGY5PHgCM-24" value="" style="endArrow=none;html=1;rounded=0;exitX=0.5;exitY=1;exitDx=0;exitDy=0;entryX=0.5;entryY=0;entryDx=0;entryDy=0;" edge="1" parent="1" source="-fKWHb4eZTRA06gbMYJY-56" target="-fKWHb4eZTRA06gbMYJY-58">
          <mxGeometry width="50" height="50" relative="1" as="geometry">
            <mxPoint x="380" y="760" as="sourcePoint" />
            <mxPoint x="430" y="710" as="targetPoint" />
          </mxGeometry>
        </mxCell>
        <mxCell id="zHZeU2eLevNIGY5PHgCM-25" value="" style="endArrow=none;html=1;rounded=0;exitX=0.5;exitY=1;exitDx=0;exitDy=0;entryX=0.5;entryY=0;entryDx=0;entryDy=0;" edge="1" parent="1" source="-fKWHb4eZTRA06gbMYJY-56" target="-fKWHb4eZTRA06gbMYJY-57">
          <mxGeometry width="50" height="50" relative="1" as="geometry">
            <mxPoint x="370" y="790" as="sourcePoint" />
            <mxPoint x="430" y="710" as="targetPoint" />
          </mxGeometry>
        </mxCell>
        <mxCell id="zHZeU2eLevNIGY5PHgCM-26" value="" style="endArrow=none;html=1;rounded=0;exitX=0.5;exitY=1;exitDx=0;exitDy=0;entryX=0.5;entryY=0;entryDx=0;entryDy=0;" edge="1" parent="1" source="-fKWHb4eZTRA06gbMYJY-56" target="-fKWHb4eZTRA06gbMYJY-60">
          <mxGeometry width="50" height="50" relative="1" as="geometry">
            <mxPoint x="380" y="760" as="sourcePoint" />
            <mxPoint x="430" y="710" as="targetPoint" />
          </mxGeometry>
        </mxCell>
        <mxCell id="zHZeU2eLevNIGY5PHgCM-27" value="" style="endArrow=none;html=1;rounded=0;exitX=0.5;exitY=0;exitDx=0;exitDy=0;entryX=0.5;entryY=1;entryDx=0;entryDy=0;" edge="1" parent="1" source="-fKWHb4eZTRA06gbMYJY-59" target="-fKWHb4eZTRA06gbMYJY-56">
          <mxGeometry width="50" height="50" relative="1" as="geometry">
            <mxPoint x="210" y="920" as="sourcePoint" />
            <mxPoint y="1010" as="targetPoint" />
          </mxGeometry>
        </mxCell>
        <mxCell id="zHZeU2eLevNIGY5PHgCM-28" value="" style="endArrow=none;html=1;rounded=0;exitX=0;exitY=0.5;exitDx=0;exitDy=0;entryX=1;entryY=0.5;entryDx=0;entryDy=0;" edge="1" parent="1" source="-fKWHb4eZTRA06gbMYJY-13" target="-fKWHb4eZTRA06gbMYJY-68">
          <mxGeometry width="50" height="50" relative="1" as="geometry">
            <mxPoint x="380" y="760" as="sourcePoint" />
            <mxPoint x="430" y="710" as="targetPoint" />
          </mxGeometry>
        </mxCell>
        <mxCell id="zHZeU2eLevNIGY5PHgCM-29" value="" style="endArrow=none;html=1;rounded=0;exitX=0;exitY=0.5;exitDx=0;exitDy=0;entryX=1;entryY=0.5;entryDx=0;entryDy=0;" edge="1" parent="1" source="-fKWHb4eZTRA06gbMYJY-13" target="-fKWHb4eZTRA06gbMYJY-70">
          <mxGeometry width="50" height="50" relative="1" as="geometry">
            <mxPoint x="380" y="760" as="sourcePoint" />
            <mxPoint x="430" y="710" as="targetPoint" />
          </mxGeometry>
        </mxCell>
        <mxCell id="zHZeU2eLevNIGY5PHgCM-30" value="" style="endArrow=none;html=1;rounded=0;exitX=0;exitY=0.5;exitDx=0;exitDy=0;entryX=1;entryY=0.5;entryDx=0;entryDy=0;" edge="1" parent="1" source="-fKWHb4eZTRA06gbMYJY-13" target="-fKWHb4eZTRA06gbMYJY-69">
          <mxGeometry width="50" height="50" relative="1" as="geometry">
            <mxPoint x="380" y="760" as="sourcePoint" />
            <mxPoint x="430" y="710" as="targetPoint" />
          </mxGeometry>
        </mxCell>
        <mxCell id="zHZeU2eLevNIGY5PHgCM-31" value="" style="endArrow=none;html=1;rounded=0;entryX=1;entryY=0.5;entryDx=0;entryDy=0;exitX=0;exitY=0.5;exitDx=0;exitDy=0;" edge="1" parent="1" source="-fKWHb4eZTRA06gbMYJY-14" target="-fKWHb4eZTRA06gbMYJY-72">
          <mxGeometry width="50" height="50" relative="1" as="geometry">
            <mxPoint x="-610" y="1010" as="sourcePoint" />
            <mxPoint x="430" y="710" as="targetPoint" />
          </mxGeometry>
        </mxCell>
        <mxCell id="zHZeU2eLevNIGY5PHgCM-32" value="" style="endArrow=none;html=1;rounded=0;entryX=0;entryY=0.5;entryDx=0;entryDy=0;exitX=1;exitY=0.5;exitDx=0;exitDy=0;" edge="1" parent="1" source="-fKWHb4eZTRA06gbMYJY-71" target="-fKWHb4eZTRA06gbMYJY-14">
          <mxGeometry width="50" height="50" relative="1" as="geometry">
            <mxPoint x="380" y="760" as="sourcePoint" />
            <mxPoint x="430" y="710" as="targetPoint" />
          </mxGeometry>
        </mxCell>
        <mxCell id="zHZeU2eLevNIGY5PHgCM-33" value="" style="endArrow=none;html=1;rounded=0;exitX=1;exitY=0.5;exitDx=0;exitDy=0;entryX=0;entryY=0.5;entryDx=0;entryDy=0;" edge="1" parent="1" source="-fKWHb4eZTRA06gbMYJY-73" target="-fKWHb4eZTRA06gbMYJY-14">
          <mxGeometry width="50" height="50" relative="1" as="geometry">
            <mxPoint x="380" y="760" as="sourcePoint" />
            <mxPoint x="430" y="710" as="targetPoint" />
          </mxGeometry>
        </mxCell>
        <mxCell id="zHZeU2eLevNIGY5PHgCM-34" value="" style="endArrow=none;html=1;rounded=0;exitX=1;exitY=0.5;exitDx=0;exitDy=0;entryX=0;entryY=0.5;entryDx=0;entryDy=0;" edge="1" parent="1" source="-fKWHb4eZTRA06gbMYJY-12" target="-fKWHb4eZTRA06gbMYJY-62">
          <mxGeometry width="50" height="50" relative="1" as="geometry">
            <mxPoint x="380" y="760" as="sourcePoint" />
            <mxPoint x="430" y="710" as="targetPoint" />
          </mxGeometry>
        </mxCell>
        <mxCell id="zHZeU2eLevNIGY5PHgCM-35" value="" style="endArrow=none;html=1;rounded=0;exitX=1;exitY=0.5;exitDx=0;exitDy=0;entryX=0;entryY=0.5;entryDx=0;entryDy=0;" edge="1" parent="1" source="-fKWHb4eZTRA06gbMYJY-12" target="-fKWHb4eZTRA06gbMYJY-61">
          <mxGeometry width="50" height="50" relative="1" as="geometry">
            <mxPoint x="380" y="760" as="sourcePoint" />
            <mxPoint x="430" y="710" as="targetPoint" />
          </mxGeometry>
        </mxCell>
        <mxCell id="zHZeU2eLevNIGY5PHgCM-36" value="" style="endArrow=none;html=1;rounded=0;exitX=1;exitY=0.5;exitDx=0;exitDy=0;entryX=0;entryY=0.5;entryDx=0;entryDy=0;" edge="1" parent="1" source="-fKWHb4eZTRA06gbMYJY-12" target="-fKWHb4eZTRA06gbMYJY-64">
          <mxGeometry width="50" height="50" relative="1" as="geometry">
            <mxPoint x="380" y="760" as="sourcePoint" />
            <mxPoint x="430" y="710" as="targetPoint" />
          </mxGeometry>
        </mxCell>
        <mxCell id="zHZeU2eLevNIGY5PHgCM-37" value="" style="endArrow=none;html=1;rounded=0;exitX=1;exitY=0.5;exitDx=0;exitDy=0;entryX=0;entryY=0.5;entryDx=0;entryDy=0;" edge="1" parent="1" source="-fKWHb4eZTRA06gbMYJY-12" target="-fKWHb4eZTRA06gbMYJY-65">
          <mxGeometry width="50" height="50" relative="1" as="geometry">
            <mxPoint x="380" y="760" as="sourcePoint" />
            <mxPoint x="430" y="710" as="targetPoint" />
          </mxGeometry>
        </mxCell>
        <mxCell id="zHZeU2eLevNIGY5PHgCM-38" value="" style="endArrow=none;html=1;rounded=0;exitX=1;exitY=0.5;exitDx=0;exitDy=0;entryX=0;entryY=0.5;entryDx=0;entryDy=0;" edge="1" parent="1" source="-fKWHb4eZTRA06gbMYJY-12" target="-fKWHb4eZTRA06gbMYJY-63">
          <mxGeometry width="50" height="50" relative="1" as="geometry">
            <mxPoint x="380" y="760" as="sourcePoint" />
            <mxPoint x="430" y="710" as="targetPoint" />
          </mxGeometry>
        </mxCell>
        <mxCell id="zHZeU2eLevNIGY5PHgCM-39" value="" style="endArrow=none;html=1;rounded=0;entryX=1;entryY=0.5;entryDx=0;entryDy=0;exitX=0;exitY=0.5;exitDx=0;exitDy=0;" edge="1" parent="1" source="-fKWHb4eZTRA06gbMYJY-66" target="-fKWHb4eZTRA06gbMYJY-12">
          <mxGeometry width="50" height="50" relative="1" as="geometry">
            <mxPoint x="380" y="760" as="sourcePoint" />
            <mxPoint x="430" y="710" as="targetPoint" />
          </mxGeometry>
        </mxCell>
        <mxCell id="zHZeU2eLevNIGY5PHgCM-40" value="" style="endArrow=none;html=1;rounded=0;exitX=1;exitY=0.5;exitDx=0;exitDy=0;entryX=0;entryY=0.5;entryDx=0;entryDy=0;" edge="1" parent="1" source="-fKWHb4eZTRA06gbMYJY-12" target="-fKWHb4eZTRA06gbMYJY-67">
          <mxGeometry width="50" height="50" relative="1" as="geometry">
            <mxPoint x="380" y="760" as="sourcePoint" />
            <mxPoint x="430" y="710" as="targetPoint" />
          </mxGeometry>
        </mxCell>
        <mxCell id="zHZeU2eLevNIGY5PHgCM-41" value="" style="endArrow=none;html=1;rounded=0;exitX=1;exitY=0.5;exitDx=0;exitDy=0;entryX=0;entryY=0.5;entryDx=0;entryDy=0;" edge="1" parent="1" source="-fKWHb4eZTRA06gbMYJY-17" target="-fKWHb4eZTRA06gbMYJY-35">
          <mxGeometry width="50" height="50" relative="1" as="geometry">
            <mxPoint x="380" y="260" as="sourcePoint" />
            <mxPoint x="430" y="210" as="targetPoint" />
          </mxGeometry>
        </mxCell>
        <mxCell id="zHZeU2eLevNIGY5PHgCM-42" value="" style="endArrow=none;html=1;rounded=0;exitX=1;exitY=0.5;exitDx=0;exitDy=0;entryX=0;entryY=0.5;entryDx=0;entryDy=0;" edge="1" parent="1" source="-fKWHb4eZTRA06gbMYJY-17" target="-fKWHb4eZTRA06gbMYJY-38">
          <mxGeometry width="50" height="50" relative="1" as="geometry">
            <mxPoint x="380" y="260" as="sourcePoint" />
            <mxPoint x="430" y="210" as="targetPoint" />
          </mxGeometry>
        </mxCell>
        <mxCell id="zHZeU2eLevNIGY5PHgCM-43" value="" style="endArrow=none;html=1;rounded=0;exitX=1;exitY=0.5;exitDx=0;exitDy=0;entryX=0;entryY=0.5;entryDx=0;entryDy=0;" edge="1" parent="1" source="-fKWHb4eZTRA06gbMYJY-17" target="-fKWHb4eZTRA06gbMYJY-36">
          <mxGeometry width="50" height="50" relative="1" as="geometry">
            <mxPoint x="380" y="260" as="sourcePoint" />
            <mxPoint x="430" y="210" as="targetPoint" />
          </mxGeometry>
        </mxCell>
        <mxCell id="zHZeU2eLevNIGY5PHgCM-44" value="" style="endArrow=none;html=1;rounded=0;exitX=1;exitY=0.5;exitDx=0;exitDy=0;entryX=0;entryY=0.5;entryDx=0;entryDy=0;" edge="1" parent="1" source="-fKWHb4eZTRA06gbMYJY-17" target="-fKWHb4eZTRA06gbMYJY-39">
          <mxGeometry width="50" height="50" relative="1" as="geometry">
            <mxPoint x="380" y="260" as="sourcePoint" />
            <mxPoint x="430" y="210" as="targetPoint" />
          </mxGeometry>
        </mxCell>
        <mxCell id="zHZeU2eLevNIGY5PHgCM-45" value="" style="endArrow=none;html=1;rounded=0;exitX=1;exitY=0.5;exitDx=0;exitDy=0;entryX=0;entryY=0.5;entryDx=0;entryDy=0;" edge="1" parent="1" source="-fKWHb4eZTRA06gbMYJY-17" target="-fKWHb4eZTRA06gbMYJY-37">
          <mxGeometry width="50" height="50" relative="1" as="geometry">
            <mxPoint x="380" y="260" as="sourcePoint" />
            <mxPoint x="430" y="210" as="targetPoint" />
          </mxGeometry>
        </mxCell>
        <mxCell id="zHZeU2eLevNIGY5PHgCM-46" value="" style="endArrow=none;html=1;rounded=0;exitX=1;exitY=0.5;exitDx=0;exitDy=0;entryX=0;entryY=0.5;entryDx=0;entryDy=0;" edge="1" parent="1" source="-fKWHb4eZTRA06gbMYJY-16" target="-fKWHb4eZTRA06gbMYJY-33">
          <mxGeometry width="50" height="50" relative="1" as="geometry">
            <mxPoint x="380" y="260" as="sourcePoint" />
            <mxPoint x="430" y="210" as="targetPoint" />
          </mxGeometry>
        </mxCell>
        <mxCell id="zHZeU2eLevNIGY5PHgCM-48" value="" style="endArrow=none;html=1;rounded=0;exitX=1;exitY=0.5;exitDx=0;exitDy=0;entryX=0;entryY=0.5;entryDx=0;entryDy=0;" edge="1" parent="1" source="-fKWHb4eZTRA06gbMYJY-16" target="-fKWHb4eZTRA06gbMYJY-30">
          <mxGeometry width="50" height="50" relative="1" as="geometry">
            <mxPoint x="380" y="260" as="sourcePoint" />
            <mxPoint x="430" y="210" as="targetPoint" />
          </mxGeometry>
        </mxCell>
        <mxCell id="zHZeU2eLevNIGY5PHgCM-49" value="" style="endArrow=none;html=1;rounded=0;exitX=1;exitY=0.5;exitDx=0;exitDy=0;entryX=0;entryY=0.5;entryDx=0;entryDy=0;" edge="1" parent="1" source="-fKWHb4eZTRA06gbMYJY-16" target="-fKWHb4eZTRA06gbMYJY-32">
          <mxGeometry width="50" height="50" relative="1" as="geometry">
            <mxPoint x="380" y="260" as="sourcePoint" />
            <mxPoint x="430" y="210" as="targetPoint" />
          </mxGeometry>
        </mxCell>
        <mxCell id="zHZeU2eLevNIGY5PHgCM-50" value="" style="endArrow=none;html=1;rounded=0;exitX=0;exitY=0.5;exitDx=0;exitDy=0;entryX=1;entryY=0.5;entryDx=0;entryDy=0;" edge="1" parent="1" source="-fKWHb4eZTRA06gbMYJY-31" target="-fKWHb4eZTRA06gbMYJY-16">
          <mxGeometry width="50" height="50" relative="1" as="geometry">
            <mxPoint x="380" y="260" as="sourcePoint" />
            <mxPoint x="430" y="210" as="targetPoint" />
          </mxGeometry>
        </mxCell>
        <mxCell id="zHZeU2eLevNIGY5PHgCM-51" value="" style="endArrow=none;html=1;rounded=0;entryX=0.5;entryY=0;entryDx=0;entryDy=0;exitX=0.5;exitY=1;exitDx=0;exitDy=0;" edge="1" parent="1" source="-fKWHb4eZTRA06gbMYJY-41" target="-fKWHb4eZTRA06gbMYJY-9">
          <mxGeometry width="50" height="50" relative="1" as="geometry">
            <mxPoint x="380" y="260" as="sourcePoint" />
            <mxPoint x="430" y="210" as="targetPoint" />
          </mxGeometry>
        </mxCell>
        <mxCell id="-fKWHb4eZTRA06gbMYJY-41" value="CRS_CODE" style="ellipse;whiteSpace=wrap;html=1;align=center;fontStyle=4;" vertex="1" parent="1">
          <mxGeometry x="-630" y="10" width="100" height="40" as="geometry" />
        </mxCell>
        <mxCell id="zHZeU2eLevNIGY5PHgCM-54" value="" style="endArrow=none;html=1;rounded=0;entryX=0.5;entryY=0;entryDx=0;entryDy=0;exitX=0.5;exitY=1;exitDx=0;exitDy=0;" edge="1" parent="1" source="-fKWHb4eZTRA06gbMYJY-44" target="-fKWHb4eZTRA06gbMYJY-9">
          <mxGeometry width="50" height="50" relative="1" as="geometry">
            <mxPoint x="380" y="260" as="sourcePoint" />
            <mxPoint x="430" y="210" as="targetPoint" />
          </mxGeometry>
        </mxCell>
        <mxCell id="zHZeU2eLevNIGY5PHgCM-55" value="" style="endArrow=none;html=1;rounded=0;exitX=0.5;exitY=0;exitDx=0;exitDy=0;entryX=0.5;entryY=1;entryDx=0;entryDy=0;" edge="1" parent="1" source="-fKWHb4eZTRA06gbMYJY-9" target="-fKWHb4eZTRA06gbMYJY-43">
          <mxGeometry width="50" height="50" relative="1" as="geometry">
            <mxPoint x="380" y="260" as="sourcePoint" />
            <mxPoint x="430" y="210" as="targetPoint" />
          </mxGeometry>
        </mxCell>
        <mxCell id="zHZeU2eLevNIGY5PHgCM-56" value="" style="endArrow=none;html=1;rounded=0;exitX=0.5;exitY=0;exitDx=0;exitDy=0;entryX=0.5;entryY=1;entryDx=0;entryDy=0;" edge="1" parent="1" source="-fKWHb4eZTRA06gbMYJY-9" target="-fKWHb4eZTRA06gbMYJY-42">
          <mxGeometry width="50" height="50" relative="1" as="geometry">
            <mxPoint x="380" y="260" as="sourcePoint" />
            <mxPoint x="430" y="210" as="targetPoint" />
          </mxGeometry>
        </mxCell>
        <mxCell id="zHZeU2eLevNIGY5PHgCM-57" value="" style="endArrow=none;html=1;rounded=0;entryX=0.5;entryY=1;entryDx=0;entryDy=0;exitX=0.5;exitY=0;exitDx=0;exitDy=0;" edge="1" parent="1" source="-fKWHb4eZTRA06gbMYJY-9" target="-fKWHb4eZTRA06gbMYJY-45">
          <mxGeometry width="50" height="50" relative="1" as="geometry">
            <mxPoint x="380" y="260" as="sourcePoint" />
            <mxPoint x="430" y="210" as="targetPoint" />
          </mxGeometry>
        </mxCell>
        <mxCell id="-fKWHb4eZTRA06gbMYJY-22" value="PROF_LNAME" style="ellipse;whiteSpace=wrap;html=1;align=center;" vertex="1" parent="1">
          <mxGeometry x="40" y="810" width="100" height="40" as="geometry" />
        </mxCell>
        <mxCell id="zHZeU2eLevNIGY5PHgCM-68" value="generates" style="shape=rhombus;perimeter=rhombusPerimeter;whiteSpace=wrap;html=1;align=center;" vertex="1" parent="1">
          <mxGeometry x="-690" y="250" width="120" height="60" as="geometry" />
        </mxCell>
        <mxCell id="zHZeU2eLevNIGY5PHgCM-69" value="offers" style="shape=rhombus;perimeter=rhombusPerimeter;whiteSpace=wrap;html=1;align=center;" vertex="1" parent="1">
          <mxGeometry x="-60" y="80" width="120" height="60" as="geometry" />
        </mxCell>
        <mxCell id="zHZeU2eLevNIGY5PHgCM-70" value="operates" style="shape=rhombus;perimeter=rhombusPerimeter;whiteSpace=wrap;html=1;align=center;" vertex="1" parent="1">
          <mxGeometry x="305" y="170" width="120" height="60" as="geometry" />
        </mxCell>
        <mxCell id="zHZeU2eLevNIGY5PHgCM-71" value="is used for" style="shape=rhombus;perimeter=rhombusPerimeter;whiteSpace=wrap;html=1;align=center;" vertex="1" parent="1">
          <mxGeometry x="-690" y="600" width="120" height="60" as="geometry" />
        </mxCell>
        <mxCell id="zHZeU2eLevNIGY5PHgCM-72" value="contains" style="shape=rhombus;perimeter=rhombusPerimeter;whiteSpace=wrap;html=1;align=center;" vertex="1" parent="1">
          <mxGeometry x="-690" y="890" width="120" height="60" as="geometry" />
        </mxCell>
        <mxCell id="zHZeU2eLevNIGY5PHgCM-74" value="is found in" style="shape=rhombus;double=1;perimeter=rhombusPerimeter;whiteSpace=wrap;html=1;align=center;" vertex="1" parent="1">
          <mxGeometry x="-470" y="950" width="120" height="60" as="geometry" />
        </mxCell>
        <mxCell id="zHZeU2eLevNIGY5PHgCM-75" value="includes" style="shape=rhombus;perimeter=rhombusPerimeter;whiteSpace=wrap;html=1;align=center;" vertex="1" parent="1">
          <mxGeometry x="-450" y="300" width="120" height="60" as="geometry" />
        </mxCell>
        <mxCell id="zHZeU2eLevNIGY5PHgCM-77" value="is dean of" style="shape=rhombus;perimeter=rhombusPerimeter;whiteSpace=wrap;html=1;align=center;" vertex="1" parent="1">
          <mxGeometry x="30" y="500" width="120" height="60" as="geometry" />
        </mxCell>
        <mxCell id="zHZeU2eLevNIGY5PHgCM-78" value="teaches" style="shape=rhombus;perimeter=rhombusPerimeter;whiteSpace=wrap;html=1;align=center;" vertex="1" parent="1">
          <mxGeometry x="-290" y="540" width="120" height="60" as="geometry" />
        </mxCell>
        <mxCell id="zHZeU2eLevNIGY5PHgCM-79" value="advises" style="shape=rhombus;perimeter=rhombusPerimeter;whiteSpace=wrap;html=1;align=center;" vertex="1" parent="1">
          <mxGeometry x="485" y="720" width="120" height="60" as="geometry" />
        </mxCell>
        <mxCell id="zHZeU2eLevNIGY5PHgCM-80" value="is written in" style="shape=rhombus;double=1;perimeter=rhombusPerimeter;whiteSpace=wrap;html=1;align=center;" vertex="1" parent="1">
          <mxGeometry x="305" y="950" width="120" height="60" as="geometry" />
        </mxCell>
        <mxCell id="zHZeU2eLevNIGY5PHgCM-81" value="employs" style="shape=rhombus;perimeter=rhombusPerimeter;whiteSpace=wrap;html=1;align=center;" vertex="1" parent="1">
          <mxGeometry x="365" y="410" width="120" height="60" as="geometry" />
        </mxCell>
        <mxCell id="zHZeU2eLevNIGY5PHgCM-82" value="chairs" style="shape=rhombus;perimeter=rhombusPerimeter;whiteSpace=wrap;html=1;align=center;" vertex="1" parent="1">
          <mxGeometry x="440" y="530" width="120" height="60" as="geometry" />
        </mxCell>
        <mxCell id="zHZeU2eLevNIGY5PHgCM-93" value="" style="endArrow=none;html=1;rounded=0;entryX=0.5;entryY=0;entryDx=0;entryDy=0;exitX=0.5;exitY=1;exitDx=0;exitDy=0;edgeStyle=orthogonalEdgeStyle;" edge="1" parent="1" source="-fKWHb4eZTRA06gbMYJY-9" target="zHZeU2eLevNIGY5PHgCM-68">
          <mxGeometry relative="1" as="geometry">
            <mxPoint x="-620" y="290" as="sourcePoint" />
            <mxPoint x="-460" y="290" as="targetPoint" />
          </mxGeometry>
        </mxCell>
        <mxCell id="zHZeU2eLevNIGY5PHgCM-94" value="1" style="resizable=0;html=1;whiteSpace=wrap;align=right;verticalAlign=bottom;" connectable="0" vertex="1" parent="zHZeU2eLevNIGY5PHgCM-93">
          <mxGeometry x="1" relative="1" as="geometry">
            <mxPoint as="offset" />
          </mxGeometry>
        </mxCell>
        <mxCell id="zHZeU2eLevNIGY5PHgCM-97" value="" style="endArrow=none;html=1;rounded=0;entryX=1;entryY=0.5;entryDx=0;entryDy=0;exitX=0;exitY=0.5;exitDx=0;exitDy=0;" edge="1" parent="1" source="-fKWHb4eZTRA06gbMYJY-17" target="zHZeU2eLevNIGY5PHgCM-75">
          <mxGeometry relative="1" as="geometry">
            <mxPoint x="-620" y="290" as="sourcePoint" />
            <mxPoint x="-460" y="290" as="targetPoint" />
          </mxGeometry>
        </mxCell>
        <mxCell id="zHZeU2eLevNIGY5PHgCM-98" value="1" style="resizable=0;html=1;whiteSpace=wrap;align=right;verticalAlign=bottom;" connectable="0" vertex="1" parent="zHZeU2eLevNIGY5PHgCM-97">
          <mxGeometry x="1" relative="1" as="geometry">
            <mxPoint x="10" as="offset" />
          </mxGeometry>
        </mxCell>
        <mxCell id="zHZeU2eLevNIGY5PHgCM-105" value="" style="endArrow=none;html=1;rounded=0;entryX=0.5;entryY=1;entryDx=0;entryDy=0;exitX=0;exitY=0.25;exitDx=0;exitDy=0;edgeStyle=orthogonalEdgeStyle;" edge="1" parent="1" source="-fKWHb4eZTRA06gbMYJY-15" target="zHZeU2eLevNIGY5PHgCM-78">
          <mxGeometry relative="1" as="geometry">
            <mxPoint x="-620" y="490" as="sourcePoint" />
            <mxPoint x="-460" y="490" as="targetPoint" />
          </mxGeometry>
        </mxCell>
        <mxCell id="zHZeU2eLevNIGY5PHgCM-106" value="1" style="resizable=0;html=1;whiteSpace=wrap;align=right;verticalAlign=bottom;" connectable="0" vertex="1" parent="zHZeU2eLevNIGY5PHgCM-105">
          <mxGeometry x="1" relative="1" as="geometry">
            <mxPoint y="20" as="offset" />
          </mxGeometry>
        </mxCell>
        <mxCell id="zHZeU2eLevNIGY5PHgCM-109" value="" style="endArrow=none;html=1;rounded=0;entryX=0.5;entryY=1;entryDx=0;entryDy=0;exitX=0.5;exitY=0;exitDx=0;exitDy=0;" edge="1" parent="1" source="-fKWHb4eZTRA06gbMYJY-14" target="zHZeU2eLevNIGY5PHgCM-72">
          <mxGeometry relative="1" as="geometry">
            <mxPoint x="-620" y="900" as="sourcePoint" />
            <mxPoint x="-460" y="900" as="targetPoint" />
          </mxGeometry>
        </mxCell>
        <mxCell id="zHZeU2eLevNIGY5PHgCM-110" value="1" style="resizable=0;html=1;whiteSpace=wrap;align=right;verticalAlign=bottom;" connectable="0" vertex="1" parent="zHZeU2eLevNIGY5PHgCM-109">
          <mxGeometry x="1" relative="1" as="geometry">
            <mxPoint y="20" as="offset" />
          </mxGeometry>
        </mxCell>
        <mxCell id="zHZeU2eLevNIGY5PHgCM-113" value="" style="endArrow=none;html=1;rounded=0;entryX=0.5;entryY=1;entryDx=0;entryDy=0;exitX=0.5;exitY=0;exitDx=0;exitDy=0;" edge="1" parent="1" source="-fKWHb4eZTRA06gbMYJY-13" target="zHZeU2eLevNIGY5PHgCM-71">
          <mxGeometry relative="1" as="geometry">
            <mxPoint x="-620" y="700" as="sourcePoint" />
            <mxPoint x="-460" y="700" as="targetPoint" />
          </mxGeometry>
        </mxCell>
        <mxCell id="zHZeU2eLevNIGY5PHgCM-114" value="1" style="resizable=0;html=1;whiteSpace=wrap;align=right;verticalAlign=bottom;" connectable="0" vertex="1" parent="zHZeU2eLevNIGY5PHgCM-113">
          <mxGeometry x="1" relative="1" as="geometry">
            <mxPoint y="20" as="offset" />
          </mxGeometry>
        </mxCell>
        <mxCell id="zHZeU2eLevNIGY5PHgCM-119" value="" style="endArrow=none;html=1;rounded=0;entryX=1;entryY=0.5;entryDx=0;entryDy=0;exitX=0;exitY=0.25;exitDx=0;exitDy=0;exitPerimeter=0;" edge="1" parent="1" source="-fKWHb4eZTRA06gbMYJY-16" target="zHZeU2eLevNIGY5PHgCM-69">
          <mxGeometry relative="1" as="geometry">
            <mxPoint x="50" y="290" as="sourcePoint" />
            <mxPoint x="210" y="290" as="targetPoint" />
          </mxGeometry>
        </mxCell>
        <mxCell id="zHZeU2eLevNIGY5PHgCM-120" value="1" style="resizable=0;html=1;whiteSpace=wrap;align=right;verticalAlign=bottom;" connectable="0" vertex="1" parent="zHZeU2eLevNIGY5PHgCM-119">
          <mxGeometry x="1" relative="1" as="geometry">
            <mxPoint x="10" as="offset" />
          </mxGeometry>
        </mxCell>
        <mxCell id="zHZeU2eLevNIGY5PHgCM-123" value="" style="endArrow=none;html=1;rounded=0;entryX=0;entryY=0.5;entryDx=0;entryDy=0;exitX=0.5;exitY=0;exitDx=0;exitDy=0;edgeStyle=orthogonalEdgeStyle;" edge="1" parent="1" source="-fKWHb4eZTRA06gbMYJY-8" target="zHZeU2eLevNIGY5PHgCM-70">
          <mxGeometry relative="1" as="geometry">
            <mxPoint x="110" y="390" as="sourcePoint" />
            <mxPoint x="270" y="390" as="targetPoint" />
          </mxGeometry>
        </mxCell>
        <mxCell id="zHZeU2eLevNIGY5PHgCM-124" value="1" style="resizable=0;html=1;whiteSpace=wrap;align=right;verticalAlign=bottom;" connectable="0" vertex="1" parent="zHZeU2eLevNIGY5PHgCM-123">
          <mxGeometry x="1" relative="1" as="geometry" />
        </mxCell>
        <mxCell id="zHZeU2eLevNIGY5PHgCM-125" value="" style="endArrow=none;html=1;rounded=0;entryX=1;entryY=0.5;entryDx=0;entryDy=0;edgeStyle=orthogonalEdgeStyle;exitX=0;exitY=0.75;exitDx=0;exitDy=0;" edge="1" parent="1" source="-fKWHb4eZTRA06gbMYJY-16" target="zHZeU2eLevNIGY5PHgCM-70">
          <mxGeometry relative="1" as="geometry">
            <mxPoint x="570" y="130" as="sourcePoint" />
            <mxPoint x="270" y="390" as="targetPoint" />
          </mxGeometry>
        </mxCell>
        <mxCell id="zHZeU2eLevNIGY5PHgCM-126" value="N" style="resizable=0;html=1;whiteSpace=wrap;align=right;verticalAlign=bottom;" connectable="0" vertex="1" parent="zHZeU2eLevNIGY5PHgCM-125">
          <mxGeometry x="1" relative="1" as="geometry">
            <mxPoint x="15" as="offset" />
          </mxGeometry>
        </mxCell>
        <mxCell id="zHZeU2eLevNIGY5PHgCM-127" value="" style="endArrow=none;html=1;rounded=0;entryX=0;entryY=0.5;entryDx=0;entryDy=0;exitX=0.25;exitY=0;exitDx=0;exitDy=0;edgeStyle=orthogonalEdgeStyle;" edge="1" parent="1" source="-fKWHb4eZTRA06gbMYJY-15" target="zHZeU2eLevNIGY5PHgCM-77">
          <mxGeometry relative="1" as="geometry">
            <mxPoint x="210" y="490" as="sourcePoint" />
            <mxPoint x="370" y="490" as="targetPoint" />
          </mxGeometry>
        </mxCell>
        <mxCell id="zHZeU2eLevNIGY5PHgCM-128" value="1" style="resizable=0;html=1;whiteSpace=wrap;align=right;verticalAlign=bottom;" connectable="0" vertex="1" parent="zHZeU2eLevNIGY5PHgCM-127">
          <mxGeometry x="1" relative="1" as="geometry" />
        </mxCell>
        <mxCell id="zHZeU2eLevNIGY5PHgCM-131" value="" style="endArrow=none;html=1;rounded=0;entryX=0.5;entryY=0;entryDx=0;entryDy=0;exitX=1;exitY=0.25;exitDx=0;exitDy=0;edgeStyle=orthogonalEdgeStyle;" edge="1" parent="1" source="-fKWHb4eZTRA06gbMYJY-15" target="zHZeU2eLevNIGY5PHgCM-79">
          <mxGeometry relative="1" as="geometry">
            <mxPoint x="360" y="700" as="sourcePoint" />
            <mxPoint x="520" y="700" as="targetPoint" />
          </mxGeometry>
        </mxCell>
        <mxCell id="zHZeU2eLevNIGY5PHgCM-132" value="1" style="resizable=0;html=1;whiteSpace=wrap;align=right;verticalAlign=bottom;" connectable="0" vertex="1" parent="zHZeU2eLevNIGY5PHgCM-131">
          <mxGeometry x="1" relative="1" as="geometry">
            <mxPoint as="offset" />
          </mxGeometry>
        </mxCell>
        <mxCell id="zHZeU2eLevNIGY5PHgCM-136" value="" style="endArrow=none;html=1;rounded=0;entryX=1;entryY=0.5;entryDx=0;entryDy=0;exitX=0.25;exitY=1;exitDx=0;exitDy=0;edgeStyle=orthogonalEdgeStyle;" edge="1" parent="1" source="-fKWHb4eZTRA06gbMYJY-16" target="zHZeU2eLevNIGY5PHgCM-81">
          <mxGeometry relative="1" as="geometry">
            <mxPoint x="350" y="390" as="sourcePoint" />
            <mxPoint x="510" y="390" as="targetPoint" />
          </mxGeometry>
        </mxCell>
        <mxCell id="zHZeU2eLevNIGY5PHgCM-137" value="1" style="resizable=0;html=1;whiteSpace=wrap;align=right;verticalAlign=bottom;" connectable="0" vertex="1" parent="zHZeU2eLevNIGY5PHgCM-136">
          <mxGeometry x="1" relative="1" as="geometry">
            <mxPoint x="15" as="offset" />
          </mxGeometry>
        </mxCell>
        <mxCell id="zHZeU2eLevNIGY5PHgCM-138" value="" style="endArrow=none;html=1;rounded=0;entryX=0;entryY=0.5;entryDx=0;entryDy=0;exitX=0.5;exitY=0;exitDx=0;exitDy=0;" edge="1" parent="1" source="-fKWHb4eZTRA06gbMYJY-15" target="zHZeU2eLevNIGY5PHgCM-81">
          <mxGeometry relative="1" as="geometry">
            <mxPoint x="350" y="490" as="sourcePoint" />
            <mxPoint x="510" y="490" as="targetPoint" />
            <Array as="points">
              <mxPoint x="-30" y="600" />
              <mxPoint x="70" y="600" />
              <mxPoint x="180" y="600" />
              <mxPoint x="365" y="600" />
            </Array>
          </mxGeometry>
        </mxCell>
        <mxCell id="zHZeU2eLevNIGY5PHgCM-139" value="N" style="resizable=0;html=1;whiteSpace=wrap;align=right;verticalAlign=bottom;" connectable="0" vertex="1" parent="zHZeU2eLevNIGY5PHgCM-138">
          <mxGeometry x="1" relative="1" as="geometry" />
        </mxCell>
        <mxCell id="zHZeU2eLevNIGY5PHgCM-142" value="" style="endArrow=none;html=1;rounded=0;entryX=0.5;entryY=1;entryDx=0;entryDy=0;exitX=0.75;exitY=0;exitDx=0;exitDy=0;edgeStyle=orthogonalEdgeStyle;" edge="1" parent="1" source="-fKWHb4eZTRA06gbMYJY-15" target="zHZeU2eLevNIGY5PHgCM-82">
          <mxGeometry relative="1" as="geometry">
            <mxPoint x="350" y="490" as="sourcePoint" />
            <mxPoint x="510" y="490" as="targetPoint" />
          </mxGeometry>
        </mxCell>
        <mxCell id="zHZeU2eLevNIGY5PHgCM-143" value="1" style="resizable=0;html=1;whiteSpace=wrap;align=right;verticalAlign=bottom;" connectable="0" vertex="1" parent="zHZeU2eLevNIGY5PHgCM-142">
          <mxGeometry x="1" relative="1" as="geometry">
            <mxPoint x="-10" y="20" as="offset" />
          </mxGeometry>
        </mxCell>
        <mxCell id="zHZeU2eLevNIGY5PHgCM-150" value="has" style="shape=rhombus;perimeter=rhombusPerimeter;whiteSpace=wrap;html=1;align=center;" vertex="1" parent="1">
          <mxGeometry x="600" y="620" width="120" height="60" as="geometry" />
        </mxCell>
        <mxCell id="zHZeU2eLevNIGY5PHgCM-168" value="" style="endArrow=none;html=1;rounded=0;entryX=0;entryY=0.5;entryDx=0;entryDy=0;exitX=1;exitY=0.75;exitDx=0;exitDy=0;edgeStyle=orthogonalEdgeStyle;" edge="1" parent="1" source="-fKWHb4eZTRA06gbMYJY-10" target="zHZeU2eLevNIGY5PHgCM-74">
          <mxGeometry relative="1" as="geometry">
            <mxPoint x="-120" y="810" as="sourcePoint" />
            <mxPoint x="40" y="810" as="targetPoint" />
          </mxGeometry>
        </mxCell>
        <mxCell id="zHZeU2eLevNIGY5PHgCM-169" value="1" style="resizable=0;html=1;whiteSpace=wrap;align=right;verticalAlign=bottom;" connectable="0" vertex="1" parent="zHZeU2eLevNIGY5PHgCM-168">
          <mxGeometry x="1" relative="1" as="geometry" />
        </mxCell>
        <mxCell id="zHZeU2eLevNIGY5PHgCM-170" value="" style="shape=link;html=1;rounded=0;entryX=1;entryY=0.5;entryDx=0;entryDy=0;exitX=0;exitY=0.5;exitDx=0;exitDy=0;" edge="1" parent="1" source="-fKWHb4eZTRA06gbMYJY-56" target="zHZeU2eLevNIGY5PHgCM-74">
          <mxGeometry relative="1" as="geometry">
            <mxPoint x="-120" y="810" as="sourcePoint" />
            <mxPoint x="40" y="810" as="targetPoint" />
          </mxGeometry>
        </mxCell>
        <mxCell id="zHZeU2eLevNIGY5PHgCM-171" value="N" style="resizable=0;html=1;whiteSpace=wrap;align=right;verticalAlign=bottom;" connectable="0" vertex="1" parent="zHZeU2eLevNIGY5PHgCM-170">
          <mxGeometry x="1" relative="1" as="geometry">
            <mxPoint x="10" as="offset" />
          </mxGeometry>
        </mxCell>
        <mxCell id="zHZeU2eLevNIGY5PHgCM-172" value="" style="endArrow=none;html=1;rounded=0;entryX=1;entryY=0.5;entryDx=0;entryDy=0;exitX=0.5;exitY=1;exitDx=0;exitDy=0;edgeStyle=orthogonalEdgeStyle;" edge="1" parent="1" source="-fKWHb4eZTRA06gbMYJY-12" target="zHZeU2eLevNIGY5PHgCM-80">
          <mxGeometry relative="1" as="geometry">
            <mxPoint x="-120" y="810" as="sourcePoint" />
            <mxPoint x="40" y="810" as="targetPoint" />
          </mxGeometry>
        </mxCell>
        <mxCell id="zHZeU2eLevNIGY5PHgCM-173" value="1" style="resizable=0;html=1;whiteSpace=wrap;align=right;verticalAlign=bottom;" connectable="0" vertex="1" parent="zHZeU2eLevNIGY5PHgCM-172">
          <mxGeometry x="1" relative="1" as="geometry">
            <mxPoint x="15" as="offset" />
          </mxGeometry>
        </mxCell>
        <mxCell id="zHZeU2eLevNIGY5PHgCM-174" value="" style="shape=link;html=1;rounded=0;entryX=0;entryY=0.5;entryDx=0;entryDy=0;exitX=1;exitY=0.5;exitDx=0;exitDy=0;" edge="1" parent="1" source="-fKWHb4eZTRA06gbMYJY-56" target="zHZeU2eLevNIGY5PHgCM-80">
          <mxGeometry relative="1" as="geometry">
            <mxPoint x="-120" y="810" as="sourcePoint" />
            <mxPoint x="40" y="810" as="targetPoint" />
          </mxGeometry>
        </mxCell>
        <mxCell id="zHZeU2eLevNIGY5PHgCM-175" value="N" style="resizable=0;html=1;whiteSpace=wrap;align=right;verticalAlign=bottom;" connectable="0" vertex="1" parent="zHZeU2eLevNIGY5PHgCM-174">
          <mxGeometry x="1" relative="1" as="geometry" />
        </mxCell>
        <mxCell id="c6p4Kcs7uQo38I6XH0Tv-1" value="" style="endArrow=none;html=1;rounded=0;dashed=1;dashPattern=1 2;entryX=0.5;entryY=1;entryDx=0;entryDy=0;exitX=0.5;exitY=0;exitDx=0;exitDy=0;" edge="1" parent="1" source="-fKWHb4eZTRA06gbMYJY-10" target="zHZeU2eLevNIGY5PHgCM-68">
          <mxGeometry relative="1" as="geometry">
            <mxPoint x="-540" y="250" as="sourcePoint" />
            <mxPoint x="-380" y="250" as="targetPoint" />
          </mxGeometry>
        </mxCell>
        <mxCell id="c6p4Kcs7uQo38I6XH0Tv-2" value="N" style="resizable=0;html=1;whiteSpace=wrap;align=right;verticalAlign=bottom;" connectable="0" vertex="1" parent="c6p4Kcs7uQo38I6XH0Tv-1">
          <mxGeometry x="1" relative="1" as="geometry">
            <mxPoint y="20" as="offset" />
          </mxGeometry>
        </mxCell>
        <mxCell id="c6p4Kcs7uQo38I6XH0Tv-3" value="" style="endArrow=none;html=1;rounded=0;dashed=1;dashPattern=1 2;entryX=0;entryY=0.5;entryDx=0;entryDy=0;exitX=0.75;exitY=0;exitDx=0;exitDy=0;edgeStyle=orthogonalEdgeStyle;" edge="1" parent="1" source="-fKWHb4eZTRA06gbMYJY-10" target="zHZeU2eLevNIGY5PHgCM-75">
          <mxGeometry relative="1" as="geometry">
            <mxPoint x="-530" y="230" as="sourcePoint" />
            <mxPoint x="-370" y="230" as="targetPoint" />
          </mxGeometry>
        </mxCell>
        <mxCell id="c6p4Kcs7uQo38I6XH0Tv-4" value="N" style="resizable=0;html=1;whiteSpace=wrap;align=right;verticalAlign=bottom;" connectable="0" vertex="1" parent="c6p4Kcs7uQo38I6XH0Tv-3">
          <mxGeometry x="1" relative="1" as="geometry" />
        </mxCell>
        <mxCell id="c6p4Kcs7uQo38I6XH0Tv-5" value="" style="endArrow=none;html=1;rounded=0;dashed=1;dashPattern=1 2;entryX=0;entryY=0.5;entryDx=0;entryDy=0;exitX=1;exitY=0.25;exitDx=0;exitDy=0;" edge="1" parent="1" source="-fKWHb4eZTRA06gbMYJY-9" target="zHZeU2eLevNIGY5PHgCM-69">
          <mxGeometry relative="1" as="geometry">
            <mxPoint x="-380" y="180" as="sourcePoint" />
            <mxPoint x="-220" y="180" as="targetPoint" />
          </mxGeometry>
        </mxCell>
        <mxCell id="c6p4Kcs7uQo38I6XH0Tv-6" value="N" style="resizable=0;html=1;whiteSpace=wrap;align=right;verticalAlign=bottom;" connectable="0" vertex="1" parent="c6p4Kcs7uQo38I6XH0Tv-5">
          <mxGeometry x="1" relative="1" as="geometry" />
        </mxCell>
        <mxCell id="c6p4Kcs7uQo38I6XH0Tv-8" value="" style="endArrow=none;html=1;rounded=0;dashed=1;dashPattern=1 2;entryX=1;entryY=0.5;entryDx=0;entryDy=0;exitX=0.5;exitY=1;exitDx=0;exitDy=0;edgeStyle=orthogonalEdgeStyle;" edge="1" parent="1" source="-fKWHb4eZTRA06gbMYJY-16" target="zHZeU2eLevNIGY5PHgCM-82">
          <mxGeometry relative="1" as="geometry">
            <mxPoint x="390" y="340" as="sourcePoint" />
            <mxPoint x="550" y="340" as="targetPoint" />
          </mxGeometry>
        </mxCell>
        <mxCell id="c6p4Kcs7uQo38I6XH0Tv-9" value="1" style="resizable=0;html=1;whiteSpace=wrap;align=right;verticalAlign=bottom;" connectable="0" vertex="1" parent="c6p4Kcs7uQo38I6XH0Tv-8">
          <mxGeometry x="1" relative="1" as="geometry" />
        </mxCell>
        <mxCell id="c6p4Kcs7uQo38I6XH0Tv-10" value="" style="endArrow=none;html=1;rounded=0;dashed=1;dashPattern=1 2;entryX=0.5;entryY=0;entryDx=0;entryDy=0;exitX=0.75;exitY=1;exitDx=0;exitDy=0;" edge="1" parent="1" source="-fKWHb4eZTRA06gbMYJY-16" target="zHZeU2eLevNIGY5PHgCM-150">
          <mxGeometry relative="1" as="geometry">
            <mxPoint x="400" y="540" as="sourcePoint" />
            <mxPoint x="560" y="540" as="targetPoint" />
          </mxGeometry>
        </mxCell>
        <mxCell id="c6p4Kcs7uQo38I6XH0Tv-11" value="1" style="resizable=0;html=1;whiteSpace=wrap;align=right;verticalAlign=bottom;" connectable="0" vertex="1" parent="c6p4Kcs7uQo38I6XH0Tv-10">
          <mxGeometry x="1" relative="1" as="geometry" />
        </mxCell>
        <mxCell id="c6p4Kcs7uQo38I6XH0Tv-12" value="" style="endArrow=none;html=1;rounded=0;dashed=1;dashPattern=1 2;entryX=0.5;entryY=1;entryDx=0;entryDy=0;exitX=0.75;exitY=0;exitDx=0;exitDy=0;" edge="1" parent="1" source="-fKWHb4eZTRA06gbMYJY-12" target="zHZeU2eLevNIGY5PHgCM-150">
          <mxGeometry relative="1" as="geometry">
            <mxPoint x="400" y="740" as="sourcePoint" />
            <mxPoint x="560" y="740" as="targetPoint" />
          </mxGeometry>
        </mxCell>
        <mxCell id="c6p4Kcs7uQo38I6XH0Tv-13" value="N" style="resizable=0;html=1;whiteSpace=wrap;align=right;verticalAlign=bottom;" connectable="0" vertex="1" parent="c6p4Kcs7uQo38I6XH0Tv-12">
          <mxGeometry x="1" relative="1" as="geometry">
            <mxPoint y="20" as="offset" />
          </mxGeometry>
        </mxCell>
        <mxCell id="c6p4Kcs7uQo38I6XH0Tv-14" value="" style="endArrow=none;html=1;rounded=0;dashed=1;dashPattern=1 2;entryX=0.5;entryY=1;entryDx=0;entryDy=0;exitX=0;exitY=0.5;exitDx=0;exitDy=0;edgeStyle=orthogonalEdgeStyle;" edge="1" parent="1" source="-fKWHb4eZTRA06gbMYJY-12" target="zHZeU2eLevNIGY5PHgCM-79">
          <mxGeometry relative="1" as="geometry">
            <mxPoint x="360" y="829" as="sourcePoint" />
            <mxPoint x="520" y="829" as="targetPoint" />
          </mxGeometry>
        </mxCell>
        <mxCell id="c6p4Kcs7uQo38I6XH0Tv-15" value="N" style="resizable=0;html=1;whiteSpace=wrap;align=right;verticalAlign=bottom;" connectable="0" vertex="1" parent="c6p4Kcs7uQo38I6XH0Tv-14">
          <mxGeometry x="1" relative="1" as="geometry">
            <mxPoint y="20" as="offset" />
          </mxGeometry>
        </mxCell>
        <mxCell id="c6p4Kcs7uQo38I6XH0Tv-16" value="" style="endArrow=none;html=1;rounded=0;dashed=1;dashPattern=1 2;entryX=1;entryY=0.5;entryDx=0;entryDy=0;exitX=0.5;exitY=1;exitDx=0;exitDy=0;edgeStyle=orthogonalEdgeStyle;" edge="1" parent="1" source="-fKWHb4eZTRA06gbMYJY-8" target="zHZeU2eLevNIGY5PHgCM-77">
          <mxGeometry relative="1" as="geometry">
            <mxPoint x="95" y="510" as="sourcePoint" />
            <mxPoint x="325" y="390" as="targetPoint" />
          </mxGeometry>
        </mxCell>
        <mxCell id="c6p4Kcs7uQo38I6XH0Tv-17" value="1" style="resizable=0;html=1;whiteSpace=wrap;align=right;verticalAlign=bottom;" connectable="0" vertex="1" parent="c6p4Kcs7uQo38I6XH0Tv-16">
          <mxGeometry x="1" relative="1" as="geometry">
            <mxPoint x="10" as="offset" />
          </mxGeometry>
        </mxCell>
        <mxCell id="c6p4Kcs7uQo38I6XH0Tv-18" value="" style="endArrow=none;html=1;rounded=0;dashed=1;dashPattern=1 2;entryX=0.5;entryY=0;entryDx=0;entryDy=0;exitX=1;exitY=0.25;exitDx=0;exitDy=0;edgeStyle=orthogonalEdgeStyle;" edge="1" parent="1" source="-fKWHb4eZTRA06gbMYJY-10" target="zHZeU2eLevNIGY5PHgCM-78">
          <mxGeometry relative="1" as="geometry">
            <mxPoint x="-425" y="430" as="sourcePoint" />
            <mxPoint x="-265" y="430" as="targetPoint" />
          </mxGeometry>
        </mxCell>
        <mxCell id="c6p4Kcs7uQo38I6XH0Tv-19" value="N" style="resizable=0;html=1;whiteSpace=wrap;align=right;verticalAlign=bottom;" connectable="0" vertex="1" parent="c6p4Kcs7uQo38I6XH0Tv-18">
          <mxGeometry x="1" relative="1" as="geometry" />
        </mxCell>
        <mxCell id="c6p4Kcs7uQo38I6XH0Tv-20" value="" style="endArrow=none;html=1;rounded=0;dashed=1;dashPattern=1 2;entryX=0.5;entryY=0;entryDx=0;entryDy=0;exitX=0.5;exitY=1;exitDx=0;exitDy=0;" edge="1" parent="1" source="-fKWHb4eZTRA06gbMYJY-10" target="zHZeU2eLevNIGY5PHgCM-71">
          <mxGeometry relative="1" as="geometry">
            <mxPoint x="-430" y="649.38" as="sourcePoint" />
            <mxPoint x="-270" y="649.38" as="targetPoint" />
          </mxGeometry>
        </mxCell>
        <mxCell id="c6p4Kcs7uQo38I6XH0Tv-21" value="N" style="resizable=0;html=1;whiteSpace=wrap;align=right;verticalAlign=bottom;" connectable="0" vertex="1" parent="c6p4Kcs7uQo38I6XH0Tv-20">
          <mxGeometry x="1" relative="1" as="geometry" />
        </mxCell>
        <mxCell id="c6p4Kcs7uQo38I6XH0Tv-22" value="" style="endArrow=none;html=1;rounded=0;dashed=1;dashPattern=1 2;entryX=0.5;entryY=0;entryDx=0;entryDy=0;exitX=0.5;exitY=1;exitDx=0;exitDy=0;" edge="1" parent="1" source="-fKWHb4eZTRA06gbMYJY-13" target="zHZeU2eLevNIGY5PHgCM-72">
          <mxGeometry relative="1" as="geometry">
            <mxPoint x="-440" y="680" as="sourcePoint" />
            <mxPoint x="-280" y="680" as="targetPoint" />
          </mxGeometry>
        </mxCell>
        <mxCell id="c6p4Kcs7uQo38I6XH0Tv-23" value="N" style="resizable=0;html=1;whiteSpace=wrap;align=right;verticalAlign=bottom;" connectable="0" vertex="1" parent="c6p4Kcs7uQo38I6XH0Tv-22">
          <mxGeometry x="1" relative="1" as="geometry" />
        </mxCell>
      </root>
    </mxGraphModel>
  </diagram>
</mxfile>
